<svg width="150" height="74" xmlns="http://www.w3.org/2000/svg" viewBox="0 0 155.39 80.44">
    <path
        d="M16.98,71.76v4.84H2.56l.16-.96h.26c.46,0,.81-.02,1.07-.06.22-.02.43-.11.62-.26.2-.14.32-.3.41-.47.06-.14.16-.42.25-1.02.1-.65.15-2.01.15-4.03v-7.13c0-3.49-.21-4.68-.38-5.08-.2-.43-.53-.68-1.02-.74-.27-.04-.64-.05-1.08-.05h-.25l-.17-.94h8.46l-.17.94h-.25c-.89,0-1.53.16-1.91.47-.17.16-.6.99-.6,5.4v7.56c0,2.03.06,3.4.2,4.05.11.55.34.92.71,1.12,4.67-.01,7.03-1.1,7.03-3.23v-.26l.94-.16Z"
        stroke-width="0"
    />
    <path
        d="M37.66,55.87l-.16.96h-.26c-.87,0-1.49.11-1.84.33-.32.22-.57.7-.73,1.47-.17.81-.26,2.18-.26,4.07v5.64c0,1.31-.17,2.49-.49,3.51-.33,1.02-.76,1.86-1.28,2.49-.52.62-1.15,1.13-1.87,1.54-1.21.67-2.61,1.01-4.16,1.01-5.37,0-8.09-2.78-8.09-8.27v-5.95c0-2.02-.06-3.41-.18-4.14-.16-.91-.34-1.16-.43-1.23-.38-.31-1.02-.47-1.9-.47h-.26l-.16-.96h8.45l-.16.96h-.26c-.44,0-.8.01-1.06.05-.23.04-.43.12-.62.26-.2.15-.33.31-.42.48-.06.14-.16.42-.25,1.01-.09.65-.14,2.01-.14,4.04v6.1c0,2.35.53,4.07,1.56,5.11,1.03,1.03,2.45,1.55,4.21,1.55s3.25-.57,4.41-1.7c1.17-1.13,1.75-2.93,1.75-5.35v-5.69c0-1.87-.09-3.25-.25-4.07-.16-.76-.39-1.26-.71-1.47-.34-.22-.96-.33-1.84-.33h-.26l-.16-.96h7.8Z"
        stroke-width="0"
    />
    <path
        d="M57.74,72.61v1.63l-.11.09c-2.25,1.7-4.98,2.56-8.11,2.56s-5.73-1.02-7.65-3.06c-1.92-2.02-2.91-4.58-2.91-7.6s.95-5.56,2.8-7.58c1.87-2.02,4.4-3.04,7.54-3.04,1.44,0,2.91.2,4.34.59,1.43.38,2.54.79,3.29,1.19l.16.1v4.23l-.87-.16-.05-.18c-.46-1.64-1.24-2.81-2.34-3.47-1.13-.68-2.65-1.01-4.52-1.01-2.37,0-4.11.83-5.35,2.53-1.24,1.71-1.87,3.99-1.87,6.76s.67,5.04,1.98,6.74c1.31,1.69,3.09,2.51,5.47,2.51,1.72,0,3.17-.21,4.3-.63,1.15-.42,2.3-1.03,3.42-1.84l.48-.36Z"
        stroke-width="0"
    />
    <path
        d="M74.89,75.47c0-.14-.04-.28-.1-.43-.09-.17-.23-.41-.43-.71l-.68-.96c-.71-1-1.48-2.09-2.25-3.25l-1.55-2.29-1.55,2.29c-2.19,3.22-2.8,4.18-2.91,4.42-.18.39-.22.63-.22.76,0,.06,0,.15.21.21.16.06.52.14,1.28.14h.27l.16.96h-8.06l.16-.96h.26c.73,0,1.31-.05,1.71-.14.41-.09.89-.33,1.44-.71.57-.39,1.18-.99,1.82-1.75.65-.76,1.48-1.87,2.44-3.28l2.18-3.13-2.64-3.94c-.97-1.42-1.75-2.53-2.33-3.29-.55-.74-1.1-1.32-1.63-1.71-.52-.39-.96-.64-1.33-.73-.37-.09-.91-.14-1.59-.14h-.26l-.16-.96h8.45l-.16.96h-.26c-.79,0-1.06.05-1.15.07l-.07.06c0,.14.04.28.11.43.07.18.22.43.43.75.22.33.44.67.68.99l1.01,1.43c.46.64.87,1.23,1.26,1.79l1.28,1.91,1.34-1.91c1.23-1.76,2.08-3.01,2.53-3.71.53-.85.6-1.22.6-1.37,0-.25-.09-.3-.18-.33-.16-.05-.52-.11-1.31-.11h-.27l-.16-.96h8.01l-.17.96h-.26c-.68,0-1.23.05-1.65.14-.41.09-.89.32-1.45.7-.55.38-1.17.97-1.81,1.75-.65.79-1.47,1.9-2.44,3.29l-1.95,2.78,2.92,4.27c1.29,1.9,2.29,3.26,2.98,4.05.67.76,1.26,1.27,1.75,1.49.49.22,1.19.33,2.08.33h.27l.15.96h-8.43l.16-.96h.27c.73,0,1-.06,1.08-.09.1-.04.1-.05.1-.09Z"
        stroke-width="0"
    />
    <path
        d="M98.48,58.53c-1.91-1.93-4.47-2.92-7.63-2.92s-5.69.97-7.54,2.91c-1.84,1.93-2.77,4.46-2.77,7.53s.97,5.67,2.88,7.72c1.92,2.07,4.5,3.12,7.63,3.12s5.68-1.05,7.51-3.1c1.84-2.06,2.77-4.64,2.77-7.71s-.96-5.59-2.86-7.54ZM90.85,56.89c2.37,0,4.14.83,5.43,2.55,1.29,1.71,1.95,4.02,1.95,6.82s-.63,5.1-1.86,6.81c-1.22,1.7-2.96,2.53-5.32,2.53s-4.15-.85-5.42-2.55c-1.29-1.71-1.96-4.02-1.96-6.84s.63-5.11,1.86-6.81c1.22-1.7,2.96-2.51,5.32-2.51Z"
        stroke-width="0"
    />
    <path
        d="M129.85,75.64c-.88,0-1.52-.16-1.9-.48-.07-.06-.27-.31-.43-1.22-.11-.73-.17-2.12-.17-4.14v-7.13c0-4.41.42-5.24.6-5.4.38-.3,1.02-.47,1.9-.47h.26l.17-.93h-8.5l.17.93h.26c.88,0,1.53.17,1.92.47.09.06.27.32.42,1.28.11.77.16,2.15.16,4.12v7.13c0,2.02-.05,3.38-.13,4.03-.09.6-.19.89-.25,1.02-.09.18-.22.34-.42.47-.2.15-.41.24-.63.26-.22.04-.53.06-.92.06h-.27c-1.68,0-3.02-.84-4.1-2.56-.51-.78-1-1.6-1.46-2.45-1.02-1.9-2.14-3.32-3.34-4.22,1.14-.25,2.13-.8,2.98-1.61,1.05-1,1.58-2.25,1.58-3.74,0-3.44-2.55-5.19-7.55-5.19h-7.04l.17.96h.25c.88,0,1.51.15,1.89.43.07.05.26.27.41,1.1.11.66.16,2.07.16,4.16v7.28c0,1.22-.02,2.17-.05,2.8-.08,2.03-.4,2.49-.52,2.59-.38.29-1.02.45-1.89.45h-.25l-.17.96h8.43l-.16-.96h-.26c-.88,0-1.53-.16-1.93-.48-.08-.06-.27-.31-.42-1.21-.12-.71-.19-2.12-.19-4.15v-3.24c.69.09,1.35.35,1.96.77.74.49,1.35,1.09,1.83,1.81.48.72.98,1.52,1.48,2.37.5.87.93,1.66,1.3,2.37.38.74.83,1.38,1.31,1.9.53.54,1.08.82,1.65.82h12.11l-.16-.96h-.26ZM110.14,65.35h-1.51v-8.2h1.57c3.15,0,4.69,1.32,4.69,4.05,0,1.4-.43,2.41-1.32,3.1-.89.7-2.05,1.05-3.43,1.05Z"
        stroke-width="0"
    />
    <path
        d="M149.97,58.53c-1.9-1.93-4.46-2.92-7.61-2.92s-5.69.97-7.54,2.91c-1.84,1.93-2.77,4.46-2.77,7.53s.97,5.67,2.88,7.72c1.92,2.07,4.48,3.12,7.63,3.12s5.67-1.05,7.51-3.1c1.84-2.06,2.76-4.64,2.76-7.71s-.96-5.59-2.86-7.54ZM142.34,56.89c2.35,0,4.13.83,5.42,2.55,1.29,1.71,1.96,4.02,1.96,6.82s-.63,5.1-1.86,6.81c-1.22,1.7-2.97,2.53-5.32,2.53s-4.15-.85-5.43-2.55c-1.29-1.71-1.95-4.02-1.95-6.84s.63-5.11,1.85-6.81c1.23-1.7,2.97-2.51,5.33-2.51Z"
        stroke-width="0"
    />
    <path
        d="M92.46,21.02l-9.97,5.69c-4.81,2.75-10.7,2.82-15.58.19l-10.63-5.74c-.54-.3-.34-1.14.29-1.14h6.61c-.02-.15-.03-.3-.03-.44,0-.59.12-1.18.35-1.74.07-.17.15-.34.25-.5l-5.65-5.41c-.41-.53.21-1.25.8-.92l6.95,4.02c.61-.47,1.32-.88,2.12-1.22l-2.3-7.87c-.09-.67.8-.98,1.15-.41l4.21,7.31c.8-.18,1.64-.29,2.51-.34l.82-8.49c.18-.65,1.12-.6,1.22.06l1.22,8.52c.68.06,1.33.18,1.97.33l5.24-6.34c.5-.44,1.26.12.98.73l-3.23,6.64c.77.36,1.45.77,2.05,1.25l6.66-4.24c.61-.26,1.16.5.7,1l-5.39,5.61c.31.63.46,1.3.46,2.01,0,.15,0,.3-.03.44h6.02c.54,0,.73.72.26,1Z"
        fill="#DAA520"
        stroke-width="0"
    />
    <path
        d="M48.95,30.61c.49,0,.69-.04.87,0,2.91.77,5.71.31,8.37-.93,3.57-1.67,7.14-1.65,10.69-.08,3.87,1.71,7.66,1.75,11.5-.1,3.22-1.55,6.49-1.42,9.75.02,2.73,1.21,5.53,2.08,8.57,1.32.1-.03.23.05.34.09-.26,2.38-1.8,3.81-4.01,3.38-1.91-.37-3.79-1.03-5.6-1.75-2.86-1.14-5.64-1.16-8.48,0-2.74,1.12-5.5,2.25-8.56,1.54-1.59-.37-3.21-.75-4.7-1.4-3.29-1.42-6.39-1.08-9.62.27-1.7.71-3.61.96-5.45,1.3-1.05.2-1.9-.23-2.37-1.3-.34-.75-.8-1.46-1.31-2.37Z"
        fill="#043631"
        stroke-width="0"
    />
    <path
        d="M53.77,37.29c2.12-.74,4.16-1.44,6.19-2.17,2.41-.87,4.83-.85,7.22.02,6.59,2.39,7.55,2.82,14.74-.09,1.92-.77,3.93-.81,5.9-.15,2.24.75,4.46,1.57,6.69,2.35-.69,1.9-2.17,2.7-3.86,1.92-3.73-1.74-7.38-1.74-11.12.03-3.61,1.71-7.29,1.61-10.94,0-3.36-1.47-6.7-1.89-10.19-.24-2.3,1.08-3.13.67-4.63-1.67Z"
        fill="#043631"
        stroke-width="0"
    />
    <path d="M59.49,41.81c2.16-.98,4.27-1.27,6.43-.7,1.66.44,3.28,1.01,4.9,1.58,2.78.99,5.51.96,8.26-.16,1.43-.59,2.91-1.1,4.41-1.48,1.95-.51,3.84-.22,5.71.66-5.44,5.82-24.27,5.92-29.72.1Z" fill="#043631" stroke-width="0" />
</svg>
