<svg width="50" height="50" xmlns="http://www.w3.org/2000/svg" viewBox="0 0 50 50">
    <g>
        <path
            d="M43,21.3l-9.7,5.6c-4.7,2.7-10.4,2.8-15.2,0.2L7.7,21.4c-0.5-0.3-0.3-1.1,0.3-1.1h6.5c0-0.1,0-0.3,0-0.4
		c0-0.6,0.1-1.1,0.3-1.7c0.1-0.2,0.1-0.3,0.2-0.5l-5.5-5.3c-0.4-0.5,0.2-1.2,0.8-0.9l6.8,3.9c0.6-0.5,1.3-0.9,2.1-1.2l-2.2-7.7
		c-0.1-0.7,0.8-1,1.1-0.4l4.1,7.1c0.8-0.2,1.6-0.3,2.5-0.3l0.8-8.3c0.2-0.6,1.1-0.6,1.2,0.1l1.2,8.3c0.7,0.1,1.3,0.2,1.9,0.3
		l5.1-6.2c0.5-0.4,1.2,0.1,1,0.7l-3.2,6.5c0.8,0.3,1.4,0.8,2,1.2l6.5-4.1c0.6-0.3,1.1,0.5,0.7,1l-5.3,5.5c0.3,0.6,0.5,1.3,0.5,2
		c0,0.1,0,0.3,0,0.4h5.9C43.3,20.3,43.5,21,43,21.3z"
		fill="#BE9A40"
        stroke-width="0"
        />
        <path
            d="M0.5,30.6c0.5,0,0.7,0,0.8,0c2.8,0.8,5.6,0.3,8.2-0.9c3.5-1.6,7-1.6,10.4-0.1c3.8,1.7,7.5,1.7,11.2-0.1
		c3.1-1.5,6.3-1.4,9.5,0c2.7,1.2,5.4,2,8.4,1.3c0.1,0,0.2,0.1,0.3,0.1c-0.3,2.3-1.8,3.7-3.9,3.3c-1.9-0.4-3.7-1-5.5-1.7
		c-2.8-1.1-5.5-1.1-8.3,0c-2.7,1.1-5.4,2.2-8.4,1.5c-1.6-0.4-3.1-0.7-4.6-1.4c-3.2-1.4-6.2-1.1-9.4,0.3c-1.7,0.7-3.5,0.9-5.3,1.3
		c-1,0.2-1.9-0.2-2.3-1.3C1.5,32.2,1,31.5,0.5,30.6z"
		fill="#FFFFFF"
        stroke-width="0"
        />
        <path
            d="M5.3,37.2c2.1-0.7,4.1-1.4,6-2.1c2.4-0.8,4.7-0.8,7,0c6.4,2.3,7.4,2.8,14.4-0.1c1.9-0.8,3.8-0.8,5.8-0.1
		c2.2,0.7,4.4,1.5,6.5,2.3c-0.7,1.9-2.1,2.6-3.8,1.9c-3.6-1.7-7.2-1.7-10.9,0c-3.5,1.7-7.1,1.6-10.7,0c-3.3-1.4-6.5-1.8-9.9-0.2
		C7.5,39.8,6.7,39.4,5.3,37.2z"
		fill="#FFFFFF"
        stroke-width="0"
        />
        <path
            d="M10.8,41.6c2.1-1,4.2-1.2,6.3-0.7c1.6,0.4,3.2,1,4.8,1.5c2.7,1,5.4,0.9,8.1-0.2c1.4-0.6,2.8-1.1,4.3-1.4
		c1.9-0.5,3.8-0.2,5.6,0.6C34.5,47.2,16.1,47.2,10.8,41.6z"
		fill="#FFFFFF"
        stroke-width="0"
        />
    </g>
</svg>
